<svg xmlns="http://www.w3.org/2000/svg" width="1200" height="1600" viewBox="0 0 1200 1600" role="img">
  <defs>
    <linearGradient id="g" x1="0" x2="1" y1="0" y2="1">
      <stop offset="0" stop-color="#19130f"/>
      <stop offset="1" stop-color="#7a3f22"/>
    </linearGradient>
  </defs>
  <rect width="1200" height="1600" fill="url(#g)"/>
  <rect x="82" y="82" width="1036" height="1436" fill="none" stroke="#e4b45f" stroke-width="3" opacity=".7"/>
  <text x="104" y="180" fill="#e4b45f" font-family="Arial, sans-serif" font-size="30" letter-spacing="9">DAILY COCKTAIL POSTER</text>
  <text x="104" y="310" fill="#f8efe4" font-family="Georgia, serif" font-size="118">Old</text>
  <text x="104" y="438" fill="#f8efe4" font-family="Georgia, serif" font-size="118">Fashioned</text>
  <path d="M380 650h440l-62 500H442z" fill="#f8efe4" opacity=".9"/>
  <path d="M430 830h340l-34 250H464z" fill="#b56328" opacity=".92"/>
  <rect x="492" y="710" width="160" height="160" rx="16" fill="#f8efe4" opacity=".55" transform="rotate(-12 572 790)"/>
  <rect x="596" y="780" width="145" height="145" rx="16" fill="#f8efe4" opacity=".42" transform="rotate(14 668 852)"/>
  <path d="M535 735c80-70 190-38 222 28-90 18-164 8-222-28z" fill="#ef8e34"/>
  <text x="104" y="1350" fill="#f8efe4" font-family="Georgia, serif" font-size="58">Whiskey, sugar, bitters, patience.</text>
  <text x="104" y="1430" fill="#e0c5a4" font-family="Arial, sans-serif" font-size="28">BOURBON / BITTERS / ORANGE PEEL</text>
</svg>
